<svg xmlns="http://www.w3.org/2000/svg" xmlns:xlink="http://www.w3.org/1999/xlink" viewBox="0,0,256,256" width="50px" height="50px" fill-rule="nonzero"><g fill="#00875f" fill-rule="nonzero" stroke="none" stroke-width="1" stroke-linecap="butt" stroke-linejoin="miter" stroke-miterlimit="10" stroke-dasharray="" stroke-dashoffset="0" font-family="none" font-weight="none" font-size="none" text-anchor="none" style="mix-blend-mode: normal"><g transform="scale(5.12,5.12)"><path d="M12.0625,1.90625c-0.10937,0.00781 -0.23828,0.05078 -0.34375,0.09375c-0.42187,0.17188 -0.65234,0.58203 -0.59375,1.03125c0.06641,0.51172 0.15625,0.97656 0.25,1.40625c0.50781,0.32813 0.98438,0.70313 1.4375,1.09375c0.6875,0.58984 1.54297,1.3125 2.125,1.3125c0.07422,0 0.17578,0.01172 0.375,-0.0625c1.74609,-0.63281 3.32031,-1.11328 4.75,-1.40625c-0.8125,-0.62109 -1.67578,-1.07031 -2.28125,-1.3125c-0.71094,-0.28125 -1.39453,-0.39062 -2.0625,-0.46875c-1.16797,-0.13672 -2.01562,-0.21875 -2.8125,-1.28125c-0.20312,-0.27344 -0.51953,-0.42578 -0.84375,-0.40625zM2.6875,3c-0.11719,0 -0.25781,0.01953 -0.375,0.0625c-0.46094,0.17188 -0.72266,0.64453 -0.625,1.125c0.89453,4.44141 2.33594,6.17969 5.53125,6.65625c0.82031,0.12109 1.06641,0.48828 1.5,1.125c0.48438,0.71094 1.08984,1.60547 2.5625,2.09375c-1.28516,0.71875 -3.05469,1.59375 -4.65625,2.34375c-0.30859,0.14453 -0.51562,0.44531 -0.5625,0.78125c-0.04687,0.33594 0.08594,0.68359 0.34375,0.90625c0.38281,0.33203 1.32031,1.10938 2.34375,1.6875c-1.67578,1.04688 -3.50781,1.98828 -3.53125,2c-0.33203,0.17188 -0.53125,0.50391 -0.53125,0.875c0,0.37109 0.19922,0.73438 0.53125,0.90625c0.16406,0.08594 1.07422,0.54297 2.125,0.9375c-1.86719,1.22656 -3.50781,2.17578 -3.53125,2.1875c-0.28906,0.16406 -0.47656,0.44922 -0.5,0.78125c-0.02344,0.33203 0.11328,0.64063 0.375,0.84375c0.20703,0.16406 0.92188,0.71094 1.75,1.1875c-1.69922,1.1875 -3.38281,2.14453 -3.40625,2.15625c-0.30859,0.16797 -0.51953,0.49219 -0.53125,0.84375c-0.01172,0.35156 0.17188,0.68359 0.46875,0.875c0.11328,0.07031 0.69531,0.45313 1.375,0.84375c-1.48047,1.01563 -2.85937,2.03516 -2.9375,2.09375c-0.21484,0.16016 -0.37109,0.39063 -0.40625,0.65625c-0.03516,0.26563 0.05469,0.53906 0.21875,0.75c0.10938,0.14063 2.69141,3.46875 4.46875,5.125c4.82422,4.49609 12.75781,5.15625 17.0625,5.15625c2.04297,0 3.38281,-0.15234 3.4375,-0.15625c0.38281,-0.04297 0.71484,-0.29297 0.84375,-0.65625c0.12891,-0.36328 0.02344,-0.76172 -0.25,-1.03125l-1.59375,-1.59375l1.5625,-0.84375c0.26563,-0.14453 0.47266,-0.39062 0.53125,-0.6875c0.05859,-0.29687 -0.02734,-0.58203 -0.21875,-0.8125l-1.84375,-2.1875l1.5,-1.125c0.23047,-0.17578 0.38672,-0.46094 0.40625,-0.75c0.01953,-0.28516 -0.07812,-0.54687 -0.28125,-0.75c-0.47656,-0.48047 -1.74609,-2.05078 -1.78125,-3.40625c-0.03125,-1.28125 0.35547,-2.42187 0.59375,-2.5625c0.14844,0 0.16406,0.03516 0.1875,0.0625c0.17578,0.20313 0.32031,0.88672 0.1875,1.875c-0.05469,0.41406 0.16016,0.80469 0.53125,1c0.37109,0.19531 0.81641,0.15625 1.125,-0.125c1.71094,-1.54687 2.16797,-3.24219 2.5,-4.46875c0.14453,-0.52344 0.26953,-1 0.4375,-1.21875c0.12109,0.17969 0.34766,0.57422 0.46875,1.34375c0.05469,0.33984 0.27734,0.64453 0.59375,0.78125c0.31641,0.13672 0.65625,0.10156 0.9375,-0.09375c1.23438,-0.85156 1.83984,-1.97656 2.3125,-2.875c0.60938,-1.16406 0.92188,-1.78125 2.21875,-1.8125c0.22656,0.28125 0.5,1.33594 0.375,2.46875c-0.04687,0.41406 0.19141,0.8125 0.5625,1c0.37109,0.1875 0.81641,0.12891 1.125,-0.15625c0.91016,-0.84375 2.90625,-4.56641 2.90625,-6.5625c0,-0.15625 -0.02344,-0.29687 -0.09375,-0.4375c-0.01562,-0.02734 -0.14453,-0.26172 -0.40625,-0.5625c-0.13672,-0.125 -0.29687,-0.24219 -0.5,-0.375c-0.00391,-0.79687 -0.06641,-1.73047 -0.3125,-2.21875c-0.25781,0.57031 -0.75391,1.17188 -1.15625,1.625c-0.43359,-0.10156 -0.94531,-0.1875 -1.53125,-0.1875c-0.08984,0 -0.21094,0.02344 -0.3125,0.03125c-0.11719,-0.69922 -0.30859,-1.58594 -0.71875,-1.9375c-0.17578,0.82031 -1,2.125 -1,2.125c0,0 -0.03125,0.04688 -0.03125,0.09375c-0.28125,0.07031 -0.60547,0.19922 -0.90625,0.28125c-0.32812,-0.66406 -0.96875,-1.87109 -1.5625,-2.125c0.08984,0.91016 -0.34375,2.53125 -0.34375,2.53125c0,0 -0.00781,0.0625 0.03125,0.125c-0.33984,0.10156 -0.66016,0.21484 -1,0.3125c-0.32812,-0.74609 -0.92578,-1.875 -1.5,-2.15625c0.04297,0.97266 -0.46875,2.65625 -0.46875,2.65625c0,0 0,0.02344 0,0.03125c-0.27734,0.06641 -0.55469,0.10547 -0.8125,0.15625c-0.25,-0.73828 -0.72266,-2.01172 -1.28125,-2.34375c-0.03516,0.94141 -0.6875,2.5625 -0.6875,2.5625c0,0 0.00391,0.02344 0,0.03125c-0.28125,0.01953 -0.57031,0.05859 -0.84375,0.0625c0.00391,-0.78125 -0.06641,-2.05078 -0.46875,-2.53125c-0.33984,0.87109 -1.46875,2.15625 -1.46875,2.15625c0,0 -0.03125,0.0625 -0.03125,0.125c-0.71484,-0.24609 -1.26172,-0.71094 -1.5,-1.53125c-0.16406,-0.40234 -0.21875,-0.83594 -0.21875,-1.28125c0,-0.08984 -0.00391,-0.16797 0,-0.25c0,-0.02344 0,-0.07031 0,-0.09375c0,-0.84766 0.25781,-1.47266 0.71875,-1.9375c0.36719,0.4375 0.92578,1.13281 1.1875,1.78125c0.41016,-0.5 0.44922,-1.80859 0.4375,-2.625c0.32813,-0.09375 0.6875,-0.19141 1.0625,-0.25c0,0 0.75391,1.625 0.84375,2.59375c0.64453,-0.43359 1.15234,-2.11328 1.3125,-2.75c0.23438,-0.00781 0.47656,-0.03125 0.71875,-0.03125c-0.08984,0.08594 -0.0625,0.1875 -0.0625,0.1875c0,0 0.49219,1.71875 0.40625,2.6875c0.82031,-0.35937 1.69141,-2.37891 1.8125,-2.65625c0.16406,0.03125 0.33203,0.05859 0.5,0.09375c0,0 0.35547,1.75391 0.21875,2.71875c0.66406,-0.25 1.44922,-1.60156 1.8125,-2.28125c0.26953,0.05859 0.53516,0.10156 0.8125,0.15625c0.10938,0.45703 0.35547,1.52734 0.28125,2.3125c0.57422,-0.24609 1.19141,-1.29687 1.5625,-2.03125c0.33594,0.03125 0.69141,0.05859 1.03125,0.0625c0.29297,0.51563 0.70703,1.25781 0.84375,1.90625c0.39844,-0.34375 0.66016,-1.26172 0.8125,-2.03125c0.4375,-0.07422 0.88281,-0.21875 1.3125,-0.375c0.44922,0.40234 0.98047,0.91016 1.28125,1.40625c0.25391,-0.43359 0.19141,-1.30859 0.09375,-2.0625c0.62109,-0.38672 1.23047,-0.85547 1.8125,-1.5c0.18359,-0.25 0.24609,-0.57422 0.15625,-0.875c-0.28516,-0.96094 -1.875,-3.10937 -4.59375,-3.0625c-2.05078,-1.52344 -3.85156,-2.09375 -6.28125,-2.09375c-0.48047,0 -0.99609,0.01563 -1.5625,0.0625c-1.82422,-1.92969 -4.25,-1.9375 -7.03125,-1.9375c-2,0 -4.44531,0.54688 -7.5,1.65625c-0.37109,0.13672 -0.70703,0.1875 -1.0625,0.1875c-1.32031,0 -2.44922,-0.96484 -3.4375,-1.8125c-0.51562,-0.44141 -1.00391,-0.83594 -1.5,-1.09375c-0.66797,-0.34766 -1.46875,-0.40234 -2.3125,-0.4375c-1.59375,-0.07031 -3.10156,-0.14062 -4.15625,-2c-0.18359,-0.32031 -0.49219,-0.5 -0.84375,-0.5zM24.71875,11.125c0.3125,-0.01562 0.70313,0.00391 1.25,0.03125c0.93359,0.04688 1.40625,1.375 1.40625,1.375c-2.66797,1.85547 -4.63281,-0.22656 -5.15625,-1.125c1.39063,-0.02344 1.56641,-0.23047 2.5,-0.28125zM46.40625,11.125c0,0 0.41797,0.91797 0.59375,1.875c0.08594,0.47266 0.12891,0.94922 0,1.3125c0,0 -0.90234,-1.14062 -2.25,-1.375c4.00781,5.08594 -6.6875,6.09375 -6.6875,6.09375h4.96875c4.84766,0 5.96875,-2.07031 5.96875,-3.59375c0,-2.74219 -2.59375,-4.3125 -2.59375,-4.3125z"></path></g></g></svg>